<?xml version="1.0" standalone="no"?>
<!DOCTYPE svg PUBLIC "-//W3C//DTD SVG 20010904//EN"
 "http://www.w3.org/TR/2001/REC-SVG-20010904/DTD/svg10.dtd">
<svg version="1.0" xmlns="http://www.w3.org/2000/svg"
 width="1920.000000pt" height="1260.000000pt" viewBox="0 0 1920.000000 1260.000000"
 preserveAspectRatio="xMidYMid meet">

<g transform="translate(0.000000,1260.000000) scale(0.100000,-0.100000)"
fill="#000000" stroke="none">
<path d="M0 8598 l0 -4001 1043 9 c573 5 1256 9 1517 8 l475 0 240 -43 c204
-37 266 -44 415 -48 154 -4 194 -2 335 21 306 49 307 49 1635 55 1253 7 1266
7 1355 28 158 38 267 54 385 54 138 1 185 -10 261 -62 l58 -39 494 0 495 0 58
28 59 27 378 3 378 3 48 -41 49 -40 422 0 422 0 -7 68 c-4 37 -23 159 -42 272
-80 468 -83 498 -90 791 l-6 276 29 54 c18 33 70 94 137 159 111 108 156 167
177 233 22 70 108 92 340 87 322 -8 1062 7 1086 22 32 21 331 26 1016 17 2338
-30 2302 -29 2568 -65 211 -28 348 -74 384 -128 33 -51 39 -114 29 -272 -12
-165 -4 -247 25 -277 19 -18 24 -16 255 72 257 99 334 117 452 105 348 -33
648 -290 735 -629 21 -82 29 -260 14 -321 -4 -16 -36 -94 -71 -173 l-64 -144
22 -23 c35 -38 81 -47 188 -40 65 4 125 2 186 -8 234 -38 623 -45 1173 -19
l142 6 0 3989 0 3988 -9600 0 -9600 0 0 -4002z"/>
<path d="M16557 5623 c-118 -70 -197 -138 -234 -200 -15 -26 -46 -110 -69
-187 l-43 -141 -86 -80 -86 -80 -34 -155 c-19 -85 -37 -165 -40 -177 l-5 -23
223 0 c219 0 226 1 333 31 252 71 345 77 454 29 38 -16 74 -30 80 -30 6 0 51
39 98 88 137 137 199 266 209 427 20 315 -217 533 -597 551 l-105 5 -98 -58z"/>
</g>
</svg>
